<svg width="40" height="40" viewBox="0 0 40 40" fill="none" xmlns="http://www.w3.org/2000/svg">
<circle cx="20" cy="20" r="20" fill="#6A8ED5"/>
<g clip-path="url(#clip0_326_49)">
<path d="M20 21.9999C21.4834 21.9999 22.9334 21.56 24.1668 20.7359C25.4001 19.9118 26.3614 18.7404 26.9291 17.37C27.4968 15.9996 27.6453 14.4916 27.3559 13.0367C27.0665 11.5818 26.3522 10.2455 25.3033 9.19658C24.2544 8.14769 22.918 7.43338 21.4632 7.14399C20.0083 6.8546 18.5003 7.00313 17.1299 7.57078C15.7594 8.13844 14.5881 9.09974 13.764 10.3331C12.9399 11.5665 12.5 13.0165 12.5 14.4999C12.502 16.4884 13.2928 18.3949 14.6989 19.801C16.105 21.2071 18.0115 21.9979 20 21.9999ZM20 9.49988C20.9889 9.49988 21.9556 9.79313 22.7779 10.3425C23.6001 10.8919 24.241 11.6728 24.6194 12.5865C24.9978 13.5001 25.0969 14.5054 24.9039 15.4753C24.711 16.4452 24.2348 17.3362 23.5355 18.0354C22.8363 18.7347 21.9454 19.2109 20.9755 19.4038C20.0055 19.5967 19.0002 19.4977 18.0866 19.1193C17.173 18.7408 16.3921 18.1 15.8427 17.2777C15.2932 16.4555 15 15.4888 15 14.4999C15 13.1738 15.5268 11.902 16.4645 10.9643C17.4021 10.0267 18.6739 9.49988 20 9.49988Z" fill="white"/>
<path d="M20 24.5C17.0173 24.5033 14.1578 25.6896 12.0487 27.7987C9.93963 29.9078 8.75331 32.7673 8.75 35.75C8.75 36.0815 8.8817 36.3995 9.11612 36.6339C9.35054 36.8683 9.66848 37 10 37C10.3315 37 10.6495 36.8683 10.8839 36.6339C11.1183 36.3995 11.25 36.0815 11.25 35.75C11.25 33.4294 12.1719 31.2038 13.8128 29.5628C15.4538 27.9219 17.6794 27 20 27C22.3206 27 24.5462 27.9219 26.1872 29.5628C27.8281 31.2038 28.75 33.4294 28.75 35.75C28.75 36.0815 28.8817 36.3995 29.1161 36.6339C29.3505 36.8683 29.6685 37 30 37C30.3315 37 30.6495 36.8683 30.8839 36.6339C31.1183 36.3995 31.25 36.0815 31.25 35.75C31.2467 32.7673 30.0604 29.9078 27.9513 27.7987C25.8422 25.6896 22.9827 24.5033 20 24.5Z" fill="white"/>
</g>
<defs>
<clipPath id="clip0_326_49">
<rect width="30" height="30" fill="white" transform="translate(5 7)"/>
</clipPath>
</defs>
</svg>
